<svg t="1747034385358" class="icon" viewBox="0 0 1024 1024" version="1.1" xmlns="http://www.w3.org/2000/svg" p-id="24440" width="200" height="200"><path d="M203.876 39.876c-17.674 0-31.626 13.956-31.626 31.624 0 14.716 9.68 26.854 23.126 30.5l46.268 110.8c-25.236 14.728-46.13 39.7-60.34 75.056L128.44 327.5l22.436 29.876 16.354-12.27c63.444-42.224 144.8-79.974 220.24-99.95l54.654-8.156-5.56-37-66.588 9.964c-26.02-9.914-50.304-14.192-72.226-13.214-7.34 0.328-14.404 1.24-21.2 2.668l-46.176-110.608a31.742 31.742 0 0 0 5.064-17.312c0-17.674-13.89-31.626-31.564-31.626zM357.62 294c-35.428 12.22-71.816 27.846-105.75 45.312l136.814 330.06 29.25-15.684 56.56-77.5L357.624 294z m338.188 223.06l-136.25 6.066-113.934 156-2.5 3.436-3.75 2.066-130.626 70.06-56.94 234.376h690.5l-30-127.372-331.12-109.376 11.748-35.5 179.81 59.376-76.94-259.126z" fill="#d4237a" p-id="24441" data-spm-anchor-id="a313x.search_index.0.i9.7ae13a818pqBes"></path></svg>